<svg xmlns="http://www.w3.org/2000/svg" viewBox="0 0 640 640">
  <path d="M 463.677 171 C 453.377 162.6 438.277 164.2 429.877 174.5 C 421.477 184.8 423.077 199.9 433.377 208.3 C 465.877 234.7 486.577 274.9 486.577 320 C 486.577 365.1 465.877 405.3 433.377 431.8 C 423.077 440.2 421.577 455.3 429.877 465.6 C 438.177 475.9 453.377 477.4 463.677 469.1 C 506.877 433.9 534.577 380.2 534.577 320.1 C 534.577 260 506.877 206.3 463.677 171.1 L 463.677 171 Z M 403.177 245.5 C 392.877 237.1 377.777 238.7 369.377 249 C 360.977 259.3 362.577 274.4 372.877 282.8 C 383.677 291.6 390.577 305 390.577 320 C 390.577 335 383.677 348.4 372.877 357.3 C 362.577 365.7 361.077 380.8 369.377 391.1 C 377.677 401.4 392.877 402.9 403.177 394.6 C 424.677 376.9 438.577 350.1 438.577 320 C 438.577 289.9 424.677 263.1 403.177 245.5 Z M 70.577 416 L 118.577 416 L 252.677 535.2 C 259.077 540.9 267.277 544 275.777 544 C 294.977 544 310.577 528.4 310.577 509.2 L 310.577 130.8 C 310.577 111.6 294.977 96 275.777 96 C 267.277 96 259.077 99.1 252.677 104.8 L 118.577 224 L 70.577 224 C 44.077 224 22.577 245.5 22.577 272 L 22.577 368 C 22.577 394.5 44.077 416 70.577 416 Z"></path>
</svg>
